<?xml version="1.0" encoding="utf-8"?>
<!-- Generator: Adobe Illustrator 16.0.0, SVG Export Plug-In . SVG Version: 6.00 Build 0)  -->
<!DOCTYPE svg PUBLIC "-//W3C//DTD SVG 1.1//EN" "http://www.w3.org/Graphics/SVG/1.1/DTD/svg11.dtd">
<svg version="1.1" id="Capa_1" xmlns="http://www.w3.org/2000/svg" xmlns:xlink="http://www.w3.org/1999/xlink" x="0px" y="0px"
	 width="512px" height="512px" viewBox="0 0 512 512" enable-background="new 0 0 512 512" xml:space="preserve">
<g>
	<path fill="#FFFFFF" stroke="#000000" stroke-width="2" stroke-miterlimit="10" d="M437,351c6.457,0,12.188-4.131,14.23-10.256
		l60-180c1.523-4.575,0.757-9.603-2.063-13.514c-2.819-3.912-7.346-6.23-12.168-6.23H119.707l-10.4-62.398
		C105.676,56.814,87.008,41,64.919,41H15C6.716,41,0,47.716,0,56s6.716,15,15,15h49.919c7.363,0,13.585,5.271,14.796,12.534
		L122,337.241V366c0,21.651,15.371,39.775,35.772,44.045c-5.169,6.428-8.272,14.584-8.272,23.455c0,20.677,16.823,37.5,37.5,37.5
		s37.5-16.823,37.5-37.5c0-8.436-2.801-16.229-7.521-22.5H357.02c-4.719,6.271-7.521,14.064-7.521,22.5
		c0,20.677,16.823,37.5,37.5,37.5s37.5-16.823,37.5-37.5c0-8.436-2.801-16.229-7.521-22.5H437c8.284,0,15-6.716,15-15
		s-6.716-15-15-15H167c-8.271,0-15-6.729-15-15v-15H437z M377,171h99.188l-10,30H377V171z M377,231h79.188l-10,30H377V231z M377,291
		h59.188l-10,30H377V291z M302,171h45v30h-45V171z M302,231h45v30h-45V231z M302,291h45v30h-45V291z M227,171h45v30h-45V171z
		 M227,231h45v30h-45V231z M227,291h45v30h-45V291z M124.707,171H197v30h-67.293L124.707,171z M134.707,231H197v30h-57.293
		L134.707,231z M149.707,321l-5-30H197v30H149.707z"/>
</g>
</svg>
